<?xml version="1.0" encoding="UTF-8"?>
<svg id="Layer_1" data-name="Layer 1" xmlns="http://www.w3.org/2000/svg" viewBox="0 0 360 130">
  <defs>
    <style>
      .cls-1 {
        fill: #fff;
      }

      .cls-1, .cls-2 {
        stroke-width: 0px;
      }

      .cls-2 {
        fill: #cc0821;
      }
    </style>
  </defs>
  <rect class="cls-2" width="360" height="130" rx="15.33" ry="15.33"/>
  <g>
    <path class="cls-1" d="M265.09,50.29c-4.5,4.54-9.15,7.18-15.06,7.07-5.89-.11-10.4-3.05-14.71-7.41,0,1.5,0,2.5,0,3.5,0,9.05,0,18.1,0,27.15,0,.75.05,1.5-.03,2.24-.16,1.47-1.15,2.4-2.55,2.47-1.32.07-2.61-.84-2.9-2.16-.14-.63-.1-1.3-.1-1.95,0-11.2,0-22.39,0-33.59,0-.09,0-.19,0-.28-.05-1.64.09-3.23,1.76-4.11,1.78-.94,3.5-.56,4.98.62,1.6,1.27,3.08,2.7,4.56,4.11,2.67,2.55,5.7,4.06,9.52,3.98,3.25-.07,6.03-1.1,8.39-3.27,1.37-1.26,2.59-2.68,3.94-3.97,1.17-1.11,2.47-1.99,4.2-1.95,2.02.05,3.29,1.2,3.47,3.24.05.56.02,1.12.02,1.68,0,11.1,0,22.21,0,33.31,0,.65.04,1.31-.05,1.96-.17,1.32-1.09,2.2-2.38,2.35-1.23.14-2.45-.56-2.79-1.83-.24-.88-.25-1.84-.25-2.76-.02-8.86,0-17.73,0-26.59,0-1.02,0-2.03,0-3.81Z"/>
    <path class="cls-1" d="M131.08,82.35c-.05,1.26-.12,2.16-.13,3.05-.02,3.92-.02,7.85-.01,11.77,0,1.23-.36,2.22-1.59,2.68-1.57.58-3.07-.28-3.35-1.94-.11-.64-.07-1.3-.07-1.96,0-11.3,0-22.6,0-33.9,0-.47-.02-.94,0-1.4.1-1.69.63-2.46,1.85-2.74,1.36-.31,2.23.18,3.06,1.73.13.24.23.5.34.75,8.1-4.29,15.3-3.51,20.08,2.15,4.24,5.02,4.45,11.81.59,17.07-2.41,3.29-5.71,5.07-9.63,5.68-3.95.62-7.55-.61-11.16-2.94ZM140.3,80.36c5.18-.01,9.14-3.92,9.26-8.88.11-4.7-4-8.89-9.2-8.96-5.22-.08-9.44,4.02-9.39,9.05.05,4.94,4.15,8.81,9.34,8.79Z"/>
    <path class="cls-1" d="M45.05,85.42c-5.57.07-10.29-2-14.62-5.13-.37-.27-.7-.62-.97-1-.74-1.04-.69-2.21.11-3.08.78-.86,1.75-1.1,2.78-.56.9.47,1.75,1.06,2.59,1.66,3.33,2.37,7.06,3.4,11.09,3.06,1.54-.13,3.14-.57,4.52-1.26,4.15-2.1,4.96-6.86,1.88-10.35-1.45-1.64-3.28-2.76-5.31-3.54-1.91-.74-3.88-1.34-5.77-2.13-1.72-.71-3.48-1.4-5.03-2.41-3.63-2.37-5.56-5.71-5.06-10.18.49-4.36,2.74-7.59,6.78-9.22,5.97-2.4,11.73-1.38,17.14,1.86,1.51.91,1.87,2.33,1.14,3.57-.71,1.22-2.08,1.57-3.66.66-2.74-1.57-5.62-2.61-8.78-2.3-1.54.15-3.16.53-4.51,1.26-3.99,2.14-4.31,7.35-.59,9.93,1.74,1.2,3.8,1.96,5.76,2.81,2.14.93,4.37,1.64,6.49,2.59,2.51,1.12,4.59,2.79,6.18,5.1,3.84,5.61,2.19,13.06-3.71,16.48-2.64,1.53-5.48,2.32-8.45,2.18Z"/>
    <path class="cls-1" d="M297.53,60.72c.3-.46.49-.77.69-1.07.71-1.07,1.72-1.39,2.92-1.1,1.15.28,1.87,1.22,1.9,2.76.06,3.45.03,6.9.03,10.35,0,3.45.02,6.9-.01,10.35-.02,2.01-.6,2.9-1.97,3.27-1.38.38-2.23-.13-3.23-1.92-.09-.16-.16-.34-.25-.49-.04-.07-.14-.1-.39-.28-3.9,2.53-8.18,3.64-12.87,2.26-3.25-.96-5.88-2.81-7.82-5.56-3.7-5.25-3.18-12.26,1.19-17,4.05-4.39,11.78-6.96,19.82-1.55ZM297.56,71.52c.01-4.95-4.02-8.88-9.19-8.95-4.94-.07-9.36,4.15-9.33,8.92.03,4.9,4.2,8.9,9.28,8.89,5.19,0,9.23-3.88,9.24-8.86Z"/>
    <path class="cls-1" d="M68.34,59.61c2.4-.68,4.57-1.58,6.83-1.88,7.36-.99,13.69,4.57,13.77,11.95.05,4.11,0,8.21-.03,12.32,0,.56.01,1.14-.13,1.67-.31,1.13-1.36,1.8-2.57,1.73-1.17-.07-1.93-.69-2.2-1.8-.15-.62-.12-1.3-.12-1.95-.01-3.08,0-6.16,0-9.24,0-.65.02-1.31-.02-1.96-.28-5.77-5.16-9.03-10.63-7.09-3,1.06-4.81,3.74-4.89,7.44-.07,3.45,0,6.91-.02,10.36,0,.75.03,1.5-.09,2.23-.22,1.29-1.11,2-2.31,2-1.2,0-2.21-.7-2.49-1.85-.15-.62-.14-1.3-.14-1.95,0-12.5,0-25.01,0-37.51,0-.74.02-1.51.23-2.21.32-1.08,1.55-1.8,2.65-1.62,1.1.18,1.92.77,2.06,1.96.09.74.09,1.49.09,2.23,0,4.2,0,8.4,0,12.6,0,.91,0,1.83,0,2.56Z"/>
    <path class="cls-1" d="M164.03,73.15c0,3.39,1.58,5.41,4.32,6.47,3.26,1.26,6.58,1.1,9.83-.19.78-.31,1.53-.71,2.34-.9,1.28-.3,2.3.23,2.79,1.28.52,1.11.09,2.03-.68,2.78-.45.45-1.05.78-1.63,1.05-4.81,2.25-9.75,2.46-14.67.54-5.37-2.1-7.54-6.62-7.7-11.96-.17-5.39,1.66-10.14,6.63-13.04,5.64-3.29,14.96-1.99,18.02,5.54.58,1.44.9,3.04,1.02,4.59.22,2.92-.57,3.72-3.46,3.74-4.67.03-9.33,0-14,0-.91,0-1.81.06-2.82.09ZM179.06,67.97c-1.26-3.94-3.72-5.62-7.67-5.48-3.58.12-5.83,1.9-6.81,5.48h14.48Z"/>
    <path class="cls-1" d="M193.98,73.05c.47,4.42,2.64,6.71,6.72,7.23,2.83.36,5.58.09,8.22-1.12.66-.31,1.39-.55,2.11-.63.86-.1,1.69.15,2.13,1.02.46.91.43,1.85-.22,2.63-.47.56-1.06,1.09-1.71,1.39-4.99,2.33-10.1,2.57-15.2.47-4.51-1.85-6.59-5.62-7.26-10.23-.43-3-.02-5.95,1.24-8.76,2.45-5.49,7.55-8.04,13.17-7.49,6.05.6,10.16,4.53,11.14,10.45.08.46.11.93.12,1.39.08,2.63-.8,3.61-3.41,3.63-4.67.04-9.34.01-14.01,0-1,0-2,0-3.04,0ZM194.46,67.93h14.31c-.39-3.18-2.51-5.03-6.07-5.43-3.88-.44-6.61,1.3-8.24,5.43Z"/>
    <path class="cls-1" d="M107.43,85.38c-7.69.02-14.22-6.17-14.3-13.56-.09-7.81,6.28-14.26,14.15-14.33,7.92-.08,14.57,6.25,14.61,13.9.04,7.7-6.45,13.98-14.46,14ZM107.52,80.37c5.07-.02,9.3-4.06,9.34-8.89.04-4.8-4.27-8.98-9.25-8.99-5.24,0-9.4,3.98-9.46,9.06-.06,4.74,4.3,8.83,9.38,8.81Z"/>
    <path class="cls-1" d="M319.89,60.54c0-4.94-.01-9.88,0-14.81.01-2.47,1-3.84,2.69-3.82,1.54.02,2.54,1.29,2.63,3.65.1,2.61.05,5.22.05,7.82,0,6.99,0,13.97,0,20.96,0,.84.02,1.68.06,2.51.07,1.36.8,2.25,2.04,2.74.69.27,1.44.42,2.1.75,1.38.69,1.89,1.93,1.44,3.23-.47,1.34-1.55,1.94-3.11,1.71-4.71-.69-7.82-4.33-7.89-9.39-.07-5.12-.01-10.25-.01-15.37Z"/>
    <path class="cls-1" d="M306.98,60.74c0-4.85-.01-9.7,0-14.55,0-.83.02-1.69.24-2.48.29-1.08,1.54-1.84,2.58-1.78,1.12.07,2.07.88,2.27,2.1.13.82.12,1.67.12,2.51,0,8.95,0,17.91.02,26.86,0,1.02.05,2.05.16,3.07.17,1.6.92,2.81,2.5,3.4.26.1.52.21.76.35,1.52.84,2.07,2.09,1.52,3.42-.64,1.53-1.88,2.02-3.7,1.4-3.04-1.03-5.13-3.03-5.92-6.17-.34-1.34-.51-2.75-.53-4.14-.06-4.66-.02-9.33-.02-13.99h0Z"/>
  </g>
</svg>